<?xml version="1.0" standalone="no"?><!DOCTYPE svg PUBLIC "-//W3C//DTD SVG 1.1//EN" "http://www.w3.org/Graphics/SVG/1.1/DTD/svg11.dtd"><svg t="1732384216888" class="icon" viewBox="0 0 1024 1024" version="1.1" xmlns="http://www.w3.org/2000/svg" p-id="1462" xmlns:xlink="http://www.w3.org/1999/xlink" width="200" height="200"><path d="M512 28.444444c267.064889 0 483.555556 216.490667 483.555556 483.555556s-216.490667 483.555556-483.555556 483.555556S28.444444 779.064889 28.444444 512 244.935111 28.444444 512 28.444444z m0 56.888889C276.366222 85.333333 85.333333 276.366222 85.333333 512c0 235.633778 191.032889 426.666667 426.666667 426.666667 235.633778 0 426.666667-191.032889 426.666667-426.666667 0-235.633778-191.032889-426.666667-426.666667-426.666667z m-34.787556 175.843556c10.552889 0 20.792889 1.052444 30.72 3.185778 9.898667 2.133333 20.394667 5.233778 31.516445 9.301333l-8.049778 53.902222c-17.408-8.704-32.995556-13.084444-46.677333-13.084444-20.764444 0-36.949333 6.968889-48.611556 20.849778-11.662222 13.880889-18.602667 34.645333-20.821333 62.236444h50.545778l-6.656 48.867556h-51.399111l-42.496 318.065777h-60.302223l42.524445-318.065777h-46.108445l6.940445-48.867556h46.08c3.726222-42.609778 16.213333-75.975111 37.546666-100.124444 21.276444-24.177778 49.692444-36.266667 85.248-36.266667z m77.511112 136.391111l39.708444 81.351111 63.914667-81.351111h74.979555l-107.491555 128.597333L695.808 654.222222H629.76l-44.743111-88.604444L514.446222 654.222222H438.613333l116.110223-135.281778-66.673778-121.372444h66.673778z" fill="#979797" p-id="1463"></path></svg>